PathFileType	4	(x/y/z)	S04_M20_T39.trc
DataRate	CameraRate	NumFrames	NumMarkers	Units	OrigDataRate	OrigDataStartFrame	OrigNumFrames
240	240	9	51	mm	240	1	519
Frame#	Time	Sternum			R.Acromium			L.Acromium			Top.Head			R.ASIS			L.ASIS			R.PSIS			L.PSIS			R.Great.Tro			L.Great.Tro			R.Iliac.Crest			L.Iliac.Crest			V.Sacral			R.Thigh.Upper.Post			R.Thigh.Lower.Ant			R.Thigh.Lower.Post			R.Thigh.Upper.Ant			R.Knee.Lat			R.Knee.Med			R.Shank.Upper.Post			R.Shank.Lower.Ant			R.Shank.Lower.Post			R.Shank.Upper.Ant			R.Ankle.Lat			R.Ankle.Med			R.Heel.Upper			R.Heel.Med			R.Heel.Lat			R.Toe.Lat			R.Toe.Med			R.Toe.Tip			L.Thigh.Upper.Post			L.Thigh.Lower.Ant			L.Thigh.Lower.Post			L.Thigh.Upper.Ant			L.Knee.Lat			L.Knee.Med			L.Shank.Upper.Post			L.Shank.Lower.Ant			L.Shank.Lower.Post			L.Shank.Upper.Ant			L.Ankle.Lat			L.Ankle.Med			L.Heel.Upper			L.Heel.Med			L.Heel.Lat			L.Toe.Lat			L.Toe.Med			L.Toe.Tip			Cervical.Spine			Back			
		X1	Y1	Z1	X2	Y2	Z2	X3	Y3	Z3	X4	Y4	Z4	X5	Y5	Z5	X6	Y6	Z6	X7	Y7	Z7	X8	Y8	Z8	X9	Y9	Z9	X10	Y10	Z10	X11	Y11	Z11	X12	Y12	Z12	X13	Y13	Z13	X14	Y14	Z14	X15	Y15	Z15	X16	Y16	Z16	X17	Y17	Z17	X18	Y18	Z18	X19	Y19	Z19	X20	Y20	Z20	X21	Y21	Z21	X22	Y22	Z22	X23	Y23	Z23	X24	Y24	Z24	X25	Y25	Z25	X26	Y26	Z26	X27	Y27	Z27	X28	Y28	Z28	X29	Y29	Z29	X30	Y30	Z30	X31	Y31	Z31	X32	Y32	Z32	X33	Y33	Z33	X34	Y34	Z34	X35	Y35	Z35	X36	Y36	Z36	X37	Y37	Z37	X38	Y38	Z38	X39	Y39	Z39	X40	Y40	Z40	X41	Y41	Z41	X42	Y42	Z42	X43	Y43	Z43	X44	Y44	Z44	X45	Y45	Z45	X46	Y46	Z46	X47	Y47	Z47	X48	Y48	Z48	X49	Y49	Z49	X50	Y50	Z50	X51	Y51	Z51	

1	0	-762.83	1248.9	289.87	-886.07	1479.6	463.86	-896.33	1465.4	114.05	-850.51	1805.5	280.9	-814.57	966.27	440.55	-774.48	978.23	187.46	-1009.8	1012.6	304.47	-991.12	1013.3	226.66	-924.77	898.86	486.62	-880.86	897.18	104.67	-905.14	1060.3	469.98	-878.34	1061	123.95	-1022	971.28	265.25	-1002.4	656.65	462.87	-953.09	555.9	430.48	-1027.5	570.61	448.27	-913.21	657.29	456.1	-1031.3	497.86	438.87	-1048.6	503.67	302.27	-1179.5	308.24	417.64	-1139.7	214.86	374.71	-1201.8	244.21	396.68	-1120.1	279.94	403.34	-1225.1	132.41	373.14	-1207.9	145.55	284.35	-1299.4	117.32	318.5	-1297.2	84.8	288.96	-1300.7	85.86	353	-1135.6	43.251	399.95	-1103.3	38.88	280.19	-1037.3	42.509	325.71	-813.03	657.99	119.18	-698.88	604.62	126.2	-767.67	581.88	135.72	-749.64	677.78	106.89	-690.11	518.81	140.95	-678.36	509.4	271.32	-680.96	318.45	152.33	-572.63	282.8	141.97	-630.9	257.69	155.12	-617.56	344.64	134.98	-499.56	142.12	160.3	-498.9	158	252.66	-543.3	69.919	213.95	-520.17	57.157	247.35	-523.76	48.489	186.1	-373.89	150.39	133.67	-349.23	184.63	244.26	-315.35	224.78	191.92	-938.31	1526.6	294.76	-1023.1	1269.7	273.5
2	0.0041667	-757.84	1248.3	289.35	-881.08	1479.1	463.28	-891.23	1464.7	113.42	-845.2	1804.9	280.09	-809.78	965.74	440.28	-769.32	977.73	187.33	-1004.8	1012	303.92	-985.99	1012.7	226.15	-920.11	898.37	486.22	-875.48	896.69	104.3	-900.35	1059.8	469.55	-873.29	1060.3	123.6	-1016.9	970.67	264.69	-998.16	656.36	462.55	-949.05	555.53	430.41	-1023.5	570.41	448	-908.97	656.86	455.94	-1027.5	497.63	438.68	-1044.5	503.32	302.1	-1177	309.05	417.67	-1137.9	215.36	374.71	-1199.8	245.15	396.68	-1117.9	280.31	403.34	-1224	133.53	373.2	-1206.7	146.49	284.42	-1298.5	119.08	318.59	-1296.4	86.603	288.99	-1300	87.565	353	-1135.3	43.418	399.99	-1103.2	38.942	280.21	-1037.1	42.428	325.67	-807.4	657.65	118.88	-693.22	604.39	126.2	-762.04	581.57	135.45	-744	677.51	106.89	-684.6	518.39	140.81	-673.19	508.87	271.12	-676.26	318.24	151.44	-568.81	281.5	141.96	-627.35	256.8	154.85	-613.27	343.64	134.85	-496.9	140.32	160.32	-496.44	156.07	252.67	-540.99	68.167	213.76	-518.03	55.321	247.18	-521.4	46.917	185.91	-371.15	148.21	134.04	-346.68	182.21	244.74	-312.54	222.34	192.55	-933.27	1526.1	294.08	-1018.1	1269.2	272.93
3	0.0083333	-752.63	1247.7	288.79	-875.87	1478.6	462.67	-885.91	1464	112.76	-839.66	1804.3	279.23	-804.77	965.19	439.99	-763.91	977.22	187.19	-999.57	1011.3	303.35	-980.63	1012.1	225.62	-915.24	897.85	485.79	-869.85	896.19	103.9	-895.32	1059.3	469.09	-868	1059.6	123.24	-1011.6	970.04	264.11	-993.72	656.07	462.23	-944.8	555.15	430.34	-1019.3	570.18	447.7	-904.51	656.41	455.78	-1023.4	497.38	438.49	-1040.1	502.96	301.92	-1174.4	309.91	417.7	-1136.1	215.88	374.72	-1197.7	246.15	396.68	-1115.5	280.7	403.35	-1222.8	134.71	373.27	-1205.4	147.48	284.5	-1297.4	120.95	318.68	-1295.6	88.507	289.01	-1299.2	89.36	353.01	-1135	43.594	400.04	-1103.1	39.006	280.23	-1037	42.343	325.63	-801.53	657.31	118.56	-687.31	604.15	126.2	-756.17	581.24	135.18	-738.1	677.23	106.88	-678.86	517.96	140.68	-667.81	508.32	270.9	-671.42	318	150.55	-564.87	280.13	141.97	-623.69	255.86	154.57	-608.82	342.59	134.72	-494.19	138.42	160.36	-493.96	154.04	252.7	-538.69	66.378	213.54	-515.9	53.431	247.01	-519.06	45.288	185.72	-368.37	145.88	134.45	-344.09	179.62	245.28	-309.66	219.72	193.24	-928.01	1525.5	293.38	-1012.9	1268.6	272.34
4	0.0125	-747.22	1247	288.22	-870.47	1478.1	462.04	-880.38	1463.3	112.06	-833.93	1803.7	278.35	-799.56	964.61	439.7	-758.29	976.72	187.03	-994.11	1010.7	302.75	-975.05	1011.5	225.07	-910.17	897.32	485.34	-863.99	895.69	103.48	-890.09	1058.8	468.62	-862.51	1058.8	122.86	-1006	969.4	263.49	-989.1	655.76	461.89	-940.38	554.75	430.26	-1014.9	569.94	447.38	-899.87	655.94	455.61	-1019.2	497.11	438.29	-1035.6	502.59	301.73	-1171.6	310.8	417.73	-1134.2	216.44	374.74	-1195.5	247.2	396.68	-1113	281.11	403.36	-1221.6	135.95	373.35	-1204	148.52	284.6	-1296.3	122.91	318.78	-1294.8	90.507	289.04	-1298.3	91.239	353.01	-1134.7	43.777	400.08	-1102.9	39.074	280.25	-1036.8	42.255	325.58	-795.44	656.97	118.23	-681.18	603.91	126.19	-750.09	580.91	134.9	-731.98	676.95	106.87	-672.93	517.5	140.54	-662.25	507.75	270.67	-666.51	317.71	149.67	-560.84	278.69	141.98	-619.96	254.88	154.27	-604.24	341.49	134.59	-491.47	136.46	160.4	-491.48	151.93	252.74	-536.42	64.574	213.32	-513.83	51.508	246.83	-516.76	43.615	185.53	-365.57	143.43	134.9	-341.5	176.88	245.87	-306.74	216.92	193.99	-922.57	1524.9	292.64	-1007.5	1268	271.74
5	0.016667	-741.65	1246.4	287.62	-864.91	1477.6	461.37	-874.69	1462.5	111.34	-828.05	1803.1	277.44	-794.17	964.01	439.39	-752.49	976.22	186.87	-988.47	1010	302.13	-969.29	1010.8	224.49	-904.93	896.77	484.87	-857.93	895.19	103.05	-884.68	1058.2	468.14	-856.83	1058	122.46	-1000.3	968.75	262.86	-984.32	655.44	461.54	-935.79	554.33	430.17	-1010.3	569.68	447.04	-895.07	655.45	455.43	-1014.9	496.84	438.09	-1030.9	502.21	301.55	-1168.8	311.73	417.75	-1132.2	217.02	374.77	-1193.2	248.3	396.68	-1110.4	281.54	403.38	-1220.4	137.24	373.43	-1202.5	149.6	284.7	-1295.2	124.95	318.88	-1293.8	92.597	289.06	-1297.4	93.197	353.01	-1134.4	43.967	400.13	-1102.8	39.144	280.28	-1036.7	42.166	325.55	-789.16	656.63	117.89	-674.88	603.65	126.19	-743.84	580.57	134.62	-725.67	676.66	106.86	-666.83	517.02	140.41	-656.56	507.16	270.42	-661.56	317.39	148.8	-556.74	277.19	142	-616.18	253.87	153.96	-599.57	340.35	134.48	-488.75	134.42	160.46	-489.02	149.74	252.79	-534.22	62.778	213.09	-511.85	49.573	246.64	-514.55	41.917	185.33	-362.78	140.84	135.39	-338.94	173.99	246.52	-303.8	213.96	194.82	-916.99	1524.3	291.88	-1002	1267.3	271.11
6	0.020833	-735.93	1245.7	287.01	-859.22	1477.1	460.68	-868.87	1461.8	110.6	-822.04	1802.4	276.51	-788.63	963.4	439.08	-746.53	975.73	186.69	-982.66	1009.4	301.49	-963.37	1010.2	223.89	-899.54	896.21	484.38	-851.71	894.7	102.6	-879.12	1057.6	467.63	-851	1057.3	122.05	-994.4	968.09	262.19	-979.39	655.11	461.18	-931.06	553.9	430.08	-1005.6	569.41	446.67	-890.12	654.95	455.25	-1010.4	496.55	437.88	-1026.1	501.82	301.36	-1165.8	312.7	417.76	-1130.1	217.63	374.81	-1190.8	249.44	396.69	-1107.7	281.99	403.42	-1219	138.57	373.52	-1201	150.72	284.81	-1293.9	127.08	318.98	-1292.9	94.776	289.09	-1296.5	95.23	353.01	-1134	44.163	400.17	-1102.6	39.218	280.3	-1036.5	42.075	325.51	-782.74	656.29	117.55	-668.44	603.38	126.19	-737.46	580.23	134.33	-719.21	676.38	106.84	-660.62	516.53	140.29	-650.76	506.55	270.15	-656.6	317.02	147.96	-552.62	275.65	142.03	-612.37	252.82	153.64	-594.83	339.18	134.37	-486.06	132.34	160.52	-486.61	147.49	252.87	-532.11	61.018	212.84	-509.96	47.651	246.44	-512.45	40.214	185.14	-360.02	138.14	135.93	-336.41	170.96	247.22	-300.86	210.83	195.71	-911.28	1523.7	291.1	-996.29	1266.7	270.47
7	0.025	-730.1	1245.1	286.39	-853.43	1476.5	459.97	-862.93	1461	109.84	-815.94	1801.8	275.55	-782.95	962.78	438.76	-740.44	975.26	186.49	-976.72	1008.7	300.84	-957.31	1009.6	223.28	-894.01	895.63	483.87	-845.33	894.22	102.13	-873.41	1057.1	467.12	-845.03	1056.5	121.62	-988.38	967.44	261.51	-974.33	654.77	460.81	-926.19	553.45	429.99	-1000.7	569.12	446.27	-885.04	654.44	455.06	-1005.8	496.24	437.67	-1021.1	501.42	301.18	-1162.7	313.69	417.76	-1127.9	218.26	374.87	-1188.4	250.62	396.69	-1105	282.46	403.46	-1217.6	139.95	373.62	-1199.4	151.88	284.94	-1292.6	129.28	319.08	-1291.8	97.041	289.11	-1295.5	97.335	353.01	-1133.7	44.363	400.2	-1102.5	39.295	280.32	-1036.3	41.983	325.47	-776.2	655.97	117.19	-661.89	603.11	126.19	-730.98	579.9	134.05	-712.62	676.09	106.82	-654.3	516.02	140.17	-644.89	505.92	269.87	-651.66	316.61	147.16	-548.47	274.08	142.07	-608.54	251.76	153.32	-590.04	337.99	134.28	-483.4	130.22	160.6	-484.24	145.21	252.96	-530.09	59.322	212.59	-508.2	45.768	246.24	-510.47	38.529	184.95	-357.31	135.32	136.51	-333.93	167.79	247.98	-297.93	207.54	196.67	-905.47	1523.1	290.3	-990.48	1266	269.81
8	0.029167	-724.17	1244.4	285.75	-847.56	1476	459.24	-856.9	1460.3	109.05	-809.76	1801.1	274.58	-777.15	962.14	438.44	-734.23	974.81	186.28	-970.66	1008	300.16	-951.14	1009	222.64	-888.37	895.04	483.35	-838.83	893.77	101.65	-867.59	1056.5	466.6	-838.94	1055.7	121.18	-982.24	966.79	260.8	-969.14	654.42	460.44	-921.2	552.99	429.89	-995.7	568.8	445.86	-879.83	653.91	454.87	-1001	495.92	437.45	-1016	501	301	-1159.6	314.72	417.76	-1125.7	218.92	374.94	-1185.8	251.85	396.69	-1102.1	282.94	403.51	-1216.2	141.37	373.73	-1197.8	153.07	285.09	-1291.2	131.56	319.19	-1290.7	99.391	289.14	-1294.5	99.511	353.01	-1133.3	44.567	400.24	-1102.3	39.374	280.34	-1036.2	41.89	325.43	-769.58	655.65	116.83	-655.26	602.82	126.19	-724.42	579.57	133.77	-705.93	675.8	106.79	-647.93	515.51	140.06	-638.99	505.29	269.57	-646.74	316.18	146.39	-544.31	272.47	142.13	-604.7	250.68	152.99	-585.21	336.79	134.2	-480.78	128.1	160.68	-481.93	142.9	253.08	-528.18	57.719	212.34	-506.56	43.951	246.05	-508.63	36.886	184.77	-354.64	132.42	137.13	-331.51	164.51	248.8	-295.01	204.1	197.7	-899.6	1522.4	289.49	-984.57	1265.4	269.15
9	0.033333	-718.15	1243.8	285.1	-841.62	1475.5	458.48	-850.8	1459.5	108.25	-803.53	1800.5	273.6	-771.26	961.49	438.11	-727.92	974.38	186.06	-964.5	1007.4	299.47	-944.86	1008.4	222	-882.63	894.44	482.81	-832.22	893.34	101.15	-861.66	1055.9	466.06	-832.75	1055	120.73	-975.99	966.16	260.07	-963.85	654.06	460.06	-916.08	552.52	429.79	-990.59	568.47	445.42	-874.51	653.38	454.68	-996.14	495.59	437.24	-1010.8	500.57	300.82	-1156.4	315.77	417.75	-1123.4	219.61	375.02	-1183.2	253.11	396.7	-1099.2	283.45	403.58	-1214.7	142.83	373.85	-1196	154.29	285.25	-1289.8	133.91	319.3	-1289.6	101.83	289.16	-1293.3	101.76	353.01	-1132.9	44.775	400.27	-1102.1	39.458	280.36	-1036	41.797	325.39	-762.89	655.35	116.47	-648.58	602.53	126.19	-717.83	579.24	133.5	-699.17	675.52	106.76	-641.53	514.98	139.96	-633.07	504.64	269.27	-641.87	315.71	145.66	-540.16	270.86	142.21	-600.87	249.6	152.67	-580.37	335.58	134.15	-478.19	125.97	160.78	-479.66	140.6	253.22	-526.38	56.239	212.08	-505.05	42.226	245.85	-506.92	35.312	184.61	-352.04	129.43	137.8	-329.15	161.12	249.67	-292.1	200.53	198.78	-893.67	1521.8	288.66	-978.59	1264.7	268.48
